PathFileType	4	(X/Y/Z)	T:\Spectrum_Optical_Capture\Spectrum_Demo_10_05_01_TRUECOMBAT\07_Smooth_Trc\TC_Jump_1.trc
DataRate	CameraRate	NumFrames	NumMarkers	Units	OrigDataRate	OrigDataStartFrame	OrigNumFrames
60.0	60.0	       4	46	mm	60.0	115	       913
Frame#	Time	HeadTop			ForeHead			LFrontHead			RFrontHead			TopSpine			Sternum			Scapula			LFShoulder			LShoulder			LBicep			LOuterElbow			LHand			LWristPinky			LWristThumb			RFShoulder			RShoulder			RBicep			ROuterElbow			RHand			RWristPinky			RWristThumb			MiddleBack			LowerBack			Root			Pelvis			LBackWaist			RBackWaist			LFrontWaist			RFrontWaist			Bellymarker			LThigh			LOuterKnee			LAnkle			LHeel			LOuterMeta			LToe			RThigh			ROuterKnee			RAnkle			RHeel			ROuterMeta			RToe			Floor1			Floor2			Floor3			Floor4			
		X1	Y1	Z1	X2	Y2	Z2	X3	Y3	Z3	X4	Y4	Z4	X5	Y5	Z5	X6	Y6	Z6	X7	Y7	Z7	X8	Y8	Z8	X9	Y9	Z9	X10	Y10	Z10	X11	Y11	Z11	X12	Y12	Z12	X13	Y13	Z13	X14	Y14	Z14	X15	Y15	Z15	X16	Y16	Z16	X17	Y17	Z17	X18	Y18	Z18	X19	Y19	Z19	X20	Y20	Z20	X21	Y21	Z21	X22	Y22	Z22	X23	Y23	Z23	X24	Y24	Z24	X25	Y25	Z25	X26	Y26	Z26	X27	Y27	Z27	X28	Y28	Z28	X29	Y29	Z29	X30	Y30	Z30	X31	Y31	Z31	X32	Y32	Z32	X33	Y33	Z33	X34	Y34	Z34	X35	Y35	Z35	X36	Y36	Z36	X37	Y37	Z37	X38	Y38	Z38	X39	Y39	Z39	X40	Y40	Z40	X41	Y41	Z41	X42	Y42	Z42	X43	Y43	Z43	X44	Y44	Z44	X45	Y45	Z45	X46	Y46	Z46	

115	1.900	-3000.03198	1603.96313	-3277.40845	-2943.02612	1466.64954	-3195.50903	-2919.55566	1468.43103	-3312.89697	-3055.32764	1480.13757	-3190.09692	-3148.02515	1366.30664	-3435.46606	-3025.66138	1108.20251	-3320.89014	-3284.58691	1247.15381	-3415.45239	-2973.30835	1228.57043	-3362.99976	-2933.74048	1347.38672	-3490.27979	-2903.09180	1167.45996	-3610.17310	-2972.17383	1128.29456	-3713.75342	-2882.65381	894.02002	-3707.38281	-2910.57690	799.04523	-3760.56079	-2854.63672	762.62323	-3680.00879	-3087.96387	1212.78845	-3260.62524	-3220.06689	1311.56799	-3234.41992	-3352.12695	1193.01025	-3272.44214	-3420.08301	1070.93384	-3334.34326	-3418.48193	827.30902	-3282.28613	-3464.29175	757.35156	-3319.35303	-3421.65479	683.10077	-3277.56396	-3177.08521	1293.43542	-3482.55664	-3198.99756	1170.14636	-3524.53516	-3216.10522	1052.47510	-3553.11426	-3076.59399	1079.65820	-3614.37964	-3101.32300	948.88116	-3645.60107	-3317.38135	956.72510	-3450.13916	-3006.60449	927.69165	-3541.29688	-3242.84766	932.01343	-3326.93750	-3043.64209	917.55493	-3342.66089	-2995.32080	675.68549	-3632.75464	-2946.98267	516.65594	-3594.00293	-3020.90430	136.76079	-3661.01489	-3125.60742	78.04324	-3661.29004	-2977.62695	28.70255	-3639.73291	-2926.30200	27.46364	-3523.11035	-3285.29053	679.41876	-3331.95703	-3320.47998	522.41010	-3403.09937	-3358.31738	124.95423	-3467.75928	-3329.86133	38.18860	-3567.75635	-3359.33911	18.95281	-3407.42065	-3256.82568	32.89317	-3333.39868	4200.46924	32.56423	-4241.13770	-3735.35156	-12.67151	-4192.56494	-3782.26733	-16.03029	4948.16699	4163.81348	21.34814	4907.32031	-2958.82129	26.12953	-3588.41479	
116	1.917	-2987.96387	1597.17590	-3266.13574	-2930.37378	1459.39673	-3185.24731	-2907.83398	1461.84082	-3302.39697	-3042.75732	1473.11121	-3179.15820	-3136.36963	1365.33508	-3424.33838	-3018.78223	1101.31067	-3317.88647	-3275.58862	1249.63220	-3408.23926	-2964.99097	1221.53088	-3357.45728	-2923.60254	1343.84216	-3481.66406	-2900.56421	1172.11035	-3614.67163	-2973.94775	1143.21069	-3718.35400	-2894.00562	907.14679	-3738.60254	-2927.88989	819.21527	-3798.48950	-2868.64990	773.18353	-3727.26245	-3078.74512	1205.36914	-3254.86255	-3209.06445	1305.79883	-3225.10718	-3346.27734	1197.60400	-3269.61572	-3421.16528	1084.14966	-3338.27759	-3443.09033	839.97125	-3301.22485	-3493.95557	777.38782	-3342.56689	-3460.24170	696.39282	-3305.31470	-3167.55835	1294.56763	-3473.54053	-3192.35767	1172.18701	-3518.46240	-3212.50439	1054.50659	-3549.08936	-3073.62891	1081.17407	-3611.13062	-3101.06909	949.82819	-3644.44775	-3315.00391	958.36371	-3447.03394	-3005.47998	926.06598	-3542.41797	-3238.45728	929.98669	-3325.43140	-3039.64551	913.07922	-3343.22461	-2994.47876	676.78033	-3634.23413	-2943.94702	518.79865	-3594.62866	-3010.05225	136.21048	-3655.53613	-3112.44409	73.92069	-3654.95459	-2963.39600	29.65357	-3632.76782	-2911.76416	32.47778	-3516.18262	-3280.91382	678.85107	-3330.04492	-3316.33545	521.18811	-3399.36719	-3357.20654	125.24939	-3466.99951	-3329.89673	38.40190	-3567.94971	-3359.22534	18.80768	-3407.28760	-3256.52271	32.33675	-3333.23145	4200.43506	32.53279	-4241.13379	-3735.19092	-12.58490	-4192.54883	-3782.36401	-16.04226	4948.22119	4163.61914	21.60730	4907.35352	
117	1.933	-2974.81885	1589.40308	-3254.41089	-2916.99585	1451.25952	-3174.26074	-2894.88062	1454.44324	-3291.49829	-3029.41406	1465.08252	-3168.09546	-3123.16895	1363.81250	-3412.87988	-3011.58667	1093.59070	-3315.16040	-3265.42480	1252.62793	-3401.27100	-2955.81519	1213.79675	-3351.48877	-2912.40381	1339.23474	-3472.53857	-2897.21680	1177.96350	-3618.81787	-2975.15991	1160.39783	-3721.54150	-2906.56934	925.93030	-3771.13501	-2946.19019	846.78107	-3836.83960	-2884.54224	791.36426	-3777.76025	-3069.37695	1197.32141	-3249.17334	-3197.11572	1299.78015	-3216.00732	-3339.56592	1203.80078	-3267.04956	-3421.20972	1100.68079	-3342.65942	-3468.43604	859.42273	-3321.95483	-3523.26538	805.17126	-3367.42944	-3500.06274	718.44196	-3334.87695	-3156.60474	1295.45605	-3464.14771	-3184.83228	1174.50037	-3512.23633	-3208.24805	1057.24609	-3545.51514	-3069.95410	1083.12756	-3607.68628	-3100.59937	951.52533	-3643.38208	-3312.27832	960.01868	-3444.64185	-3003.53076	924.75452	-3543.62354	-3233.79150	927.79987	-3324.67139	-3035.55127	908.29077	-3344.42114	-2994.56128	677.94708	-3636.04932	-2943.15381	520.47290	-3595.71729	-2996.22876	133.81786	-3648.51904	-3095.28931	66.32998	-3646.93384	-2944.37573	30.34627	-3623.37256	-2893.24414	38.57561	-3506.77222	-3275.27661	678.21552	-3327.80688	-3310.31079	519.81744	-3394.14258	-3355.42944	126.25095	-3465.74829	-3329.67188	39.36641	-3568.09058	-3358.82642	18.90954	-3407.13354	-3255.88281	31.46247	-3333.05103	4200.41650	32.51495	-4241.13525	-3735.06250	-12.53210	-4192.54395	-3782.43091	-16.02347	4948.24121	4163.49951	21.80964	4907.39551	
118	1.950	-2960.70850	1580.12512	-3242.48022	-2903.10107	1441.75488	-3162.85522	-2880.86206	1445.66077	-3280.53394	-3015.54834	1455.55774	-3157.09668	-3108.63892	1361.36035	-3401.26880	-3004.39771	1084.81592	-3312.82739	-3254.18115	1255.70850	-3394.51904	-2945.85327	1204.97656	-3345.42651	-2900.05762	1333.16492	-3463.00073	-2893.07593	1184.70667	-3622.21265	-2975.26440	1179.36938	-3722.74487	-2919.78149	950.51611	-3802.77271	-2965.56250	881.86475	-3873.32471	-2902.42578	817.98083	-3828.68188	-3060.06836	1188.31555	-3243.57568	-3184.36890	1293.23425	-3207.18701	-3331.74658	1211.12439	-3264.46143	-3419.66553	1120.03931	-3346.70093	-3493.13599	885.27008	-3343.10132	-3550.37646	840.26044	-3392.69165	-3538.89648	749.26178	-3365.48438	-3144.38550	1295.63196	-3454.42090	-3176.59106	1176.68787	-3505.92749	-3203.43628	1060.25256	-3542.32446	-3065.54175	1085.25378	-3604.44727	-3099.54248	953.90686	-3642.76270	-3309.07446	961.26715	-3443.28711	-3000.91284	923.66626	-3544.87573	-3229.31128	925.47406	-3324.95972	-3031.83350	903.01135	-3346.44482	-2995.20850	678.89636	-3638.06226	-2943.82227	521.41229	-3596.77588	-2979.81128	130.20682	-3639.90576	-3074.85645	56.81980	-3637.19727	-2922.04346	31.13560	-3611.46777	-2872.35132	45.64610	-3494.92749	-3268.56323	677.53198	-3325.37280	-3302.32813	518.20801	-3387.26929	-3352.72656	128.25815	-3463.77930	-3328.94849	41.79379	-3567.95947	-3358.02026	19.69171	-3406.96533	-3254.87207	30.33801	-3332.84131	4200.42969	32.51888	-4241.14404	-3734.96875	-12.49670	-4192.55029	-3782.43018	-15.97401	4948.22705	4163.47803	21.89477	4907.38281	-2903.99634	35.23801	-3560.65894	
